<?xml version="1.0" encoding="utf-8"?>
<!DOCTYPE svg PUBLIC "-//W3C//DTD SVG 1.1//EN" "http://www.w3.org/Graphics/SVG/1.1/DTD/svg11.dtd">
<!-- Generated by geo2svg 2.1.0. https://d3js.org/d3-geo-projection/ -->
<svg version="1.1" xmlns="http://www.w3.org/2000/svg" xmlns:xlink="http://www.w3.org/1999/xlink" width="960" height="960" viewBox="0 0 960 960" fill="none" stroke="black">
  <path d="M-74.359242,39.401557L-74.393381,39.389146L-74.425526,39.393744L-74.44815,39.419867L-74.430898,39.42536L-74.421702,39.416938L-74.413564,39.404771L-74.39977,39.399359L-74.386627,39.40648L-74.371734,39.436591L-74.358795,39.44717L-74.367543,39.465033L-74.351633,39.470201L-74.302113,39.464748L-74.304921,39.459784L-74.313344,39.455146L-74.31786,39.454006L-74.330922,39.426093ZM-74.231632,39.552991L-74.256418,39.522203L-74.255767,39.529731L-74.254465,39.534613L-74.25464,39.547362L-74.240072,39.575388L-74.159987,39.685464L-74.132883,39.714667L-74.118276,39.737982L-74.109486,39.748928L-74.098134,39.755683L-74.105784,39.729153L-74.129682,39.70129L-74.147901,39.665896L-74.184308,39.615555ZM-73.991916,40.79846L-74.006253,40.780614L-74.014311,40.765843L-74.018633,40.751683L-74.020927,40.742051L-74.028028,40.727857L-74.031929,40.714181L-74.048085,40.700629L-74.071034,40.687201L-74.089345,40.669257L-74.096006,40.654758L-74.11066,40.650362L-74.131022,40.645177L-74.142085,40.646323L-74.138991,40.657848L-74.105568,40.705193L-74.112435,40.717893L-74.126017,40.70317L-74.133318,40.691238L-74.142191,40.676121L-74.150018,40.664183L-74.160756,40.662462L-74.179067,40.65351L-74.190321,40.649384L-74.209647,40.634231L-74.215286,40.591658L-74.221669,40.572089L-74.233017,40.566537L-74.249044,40.562975L-74.260488,40.55182L-74.259878,40.536731L-74.26393,40.51329L-74.26965,40.50492L-74.282687,40.497319L-74.26955,40.483059L-74.256337,40.460028L-74.221913,40.45189L-74.205922,40.442939L-74.197133,40.440863L-74.145904,40.447699L-74.119944,40.445258L-74.032338,40.421617L-73.992991,40.402411L-73.988009,40.407834L-73.995311,40.421853L-73.998199,40.441107L-74.018219,40.480536L-73.989573,40.468207L-73.979156,40.449286L-73.975701,40.42927L-73.97093,40.394749L-73.972394,40.32765L-73.979888,40.280158L-73.992055,40.226874L-74.010752,40.167556L-74.018224,40.140894L-74.025606,40.11103L-74.03056,40.079341L-74.036719,40.048585L-74.040411,40.028078L-74.046562,39.997337L-74.058819,39.954516L-74.062502,39.933096L-74.067424,39.903305L-74.07234,39.875379L-74.093013,39.776337L-74.100438,39.783233L-74.08074,39.922879L-74.072175,39.972991L-74.066042,39.992555L-74.057465,40.012122L-74.051325,40.035394L-74.050282,40.054999L-74.060699,40.062161L-74.08048,40.051265L-74.078066,40.043811L-74.067122,40.041935L-74.063503,40.030752L-74.075681,40.025177L-74.083016,40.01121L-74.103686,40.014024L-74.109486,40.002834L-74.12206,39.997301L-74.126088,39.981594L-74.105824,39.985541L-74.102284,39.970933L-74.112375,39.949693L-74.132883,39.933783L-74.113609,39.931076L-74.109992,39.921741L-74.127043,39.905893L-74.1368,39.890967L-74.131991,39.872294L-74.125885,39.855618L-74.127268,39.848456L-74.145904,39.830756L-74.165865,39.806564L-74.186519,39.772111L-74.190197,39.744163L-74.163319,39.735175L-74.16114,39.720869L-74.166014,39.704098L-74.167551,39.699368L-74.181779,39.691989L-74.198762,39.67614L-74.210909,39.650965L-74.243622,39.643486L-74.252115,39.631355L-74.247548,39.621405L-74.256418,39.61164L-74.276367,39.607072L-74.290905,39.605187L-74.306666,39.594895L-74.328491,39.576185L-74.32971,39.562178L-74.303538,39.541653L-74.290191,39.523139L-74.297353,39.508612L-74.310902,39.506659L-74.316274,39.514553L-74.318186,39.524644L-74.321278,39.529731L-74.358795,39.550198L-74.373647,39.543443L-74.38679,39.54442L-74.39802,39.550035L-74.407216,39.557034L-74.406484,39.520087L-74.401275,39.502427L-74.389272,39.49494L-74.380116,39.487494L-74.383697,39.471096L-74.396352,39.44717L-74.411244,39.450181L-74.422109,39.455146L-74.432973,39.456204L-74.44815,39.44717L-74.454905,39.439032L-74.462066,39.426418L-74.467519,39.412095L-74.468658,39.399359L-74.450307,39.40644L-74.434397,39.395006L-74.421783,39.37523L-74.413442,39.357123L-74.444407,39.347113L-74.502838,39.318183L-74.530141,39.310614L-74.530141,39.31623L-74.521108,39.33039L-74.50886,39.343451L-74.48176,39.364651L-74.509633,39.378852L-74.542348,39.347317L-74.555247,39.329291L-74.550649,39.31623L-74.550649,39.310614L-74.614491,39.312405L-74.642079,39.306708L-74.660471,39.289496L-74.642568,39.289008L-74.629506,39.284369L-74.618153,39.278754L-74.605214,39.275214L-74.550649,39.289496L-74.550649,39.28266L-74.578969,39.267768L-74.620839,39.223212L-74.643056,39.213813L-74.654368,39.201361L-74.701487,39.124416L-74.711822,39.131008L-74.722808,39.131822L-74.733266,39.127427L-74.742421,39.11815L-74.737538,39.117743L-74.736724,39.116767L-74.736969,39.114691L-74.735585,39.111396L-74.72525,39.115953L-74.716379,39.114936L-74.710194,39.108791L-74.708323,39.097724L-74.713735,39.091132L-74.737172,39.070258L-74.745717,39.054511L-74.753814,39.048774L-74.764068,39.044257L-74.788075,39.039049L-74.789377,39.031195L-74.785268,39.02204L-74.783355,39.015123L-74.803293,38.987616L-74.83609,38.963446L-74.875111,38.944525L-74.933095,38.926337L-74.944244,38.924384L-74.954701,38.926418L-74.967641,38.935777L-74.969334,38.945997L-74.96515,38.957011L-74.961798,38.969323L-74.956768,38.988112L-74.952566,39.007548L-74.944325,39.024726L-74.894439,39.107611L-74.887278,39.146796L-74.906321,39.179633L-74.922231,39.188544L-74.938588,39.192532L-74.978871,39.193305L-74.98644,39.192328L-75.003733,39.188056L-75.013051,39.187079L-75.022206,39.189276L-75.023427,39.194892L-75.022857,39.20246L-75.026682,39.210679L-75.040273,39.214545L-75.061147,39.213528L-75.092437,39.207587L-75.106597,39.200141L-75.117177,39.192816L-75.128896,39.18769L-75.146474,39.187079L-75.145009,39.191474L-75.159332,39.198635L-75.166982,39.207587L-75.168813,39.21601L-75.165639,39.228339L-75.166982,39.23428L-75.175771,39.242011L-75.211659,39.26435L-75.225942,39.268988L-75.234202,39.273383L-75.242096,39.292629L-75.249501,39.296942L-75.287424,39.296942L-75.303619,39.30329L-75.313222,39.317816L-75.320912,39.333686L-75.33141,39.344143L-75.340566,39.345038L-75.348215,39.342027L-75.354482,39.338568L-75.359364,39.337877L-75.367177,39.342597L-75.371938,39.347724L-75.375559,39.352729L-75.477651,39.440863L-75.508168,39.457343L-75.531606,39.477973L-75.541331,39.508857L-75.537343,39.50316L-75.531646,39.498481L-75.523834,39.49494L-75.521555,39.514106L-75.510406,39.559638L-75.513661,39.573798L-75.547475,39.60106L-75.558217,39.613471L-75.557444,39.621243L-75.53539,39.638902L-75.51651,39.647773L-75.510243,39.652655L-75.507151,39.662299L-75.504994,39.676011L-75.501129,39.6883L-75.487538,39.696845L-75.483144,39.704169L-75.476674,39.711371L-75.465199,39.714667L-75.463368,39.719387L-75.461822,39.748236L-75.440175,39.777004L-75.406117,39.802924L-75.367299,39.823798L-75.310902,39.843207L-75.2683,39.850775L-75.246083,39.851874L-75.229075,39.85456L-75.192942,39.867499L-75.168853,39.872707L-75.167592,39.873481L-75.166249,39.873358L-75.160756,39.878567L-75.144154,39.874905L-75.129384,39.883857L-75.114817,39.897162L-75.098704,39.90644L-75.113678,39.922065L-75.120229,39.940741L-75.115956,39.952582L-75.098704,39.947455L-75.085032,39.961086L-75.078765,39.953599L-75.039418,40.002631L-75.02359,40.016303L-74.988593,40.029228L-74.975067,40.036283L-74.935761,40.070268L-74.920429,40.077861L-74.882831,40.087162L-74.872626,40.090873L-74.837762,40.114921L-74.828265,40.118852L-74.803143,40.121586L-74.76994,40.129838L-74.74101,40.143705L-74.728632,40.163237L-74.739374,40.184867L-74.764716,40.206279L-74.818036,40.241728L-74.849237,40.271293L-74.883075,40.30811L-74.886298,40.314018L-74.895502,40.323442L-74.947748,40.359037L-74.961493,40.397587L-74.97453,40.414579L-75.01369,40.403324L-75.035858,40.415165L-75.054315,40.43538L-75.064423,40.454008L-75.071649,40.531864L-75.088788,40.558329L-75.139545,40.570707L-75.16955,40.566264L-75.182196,40.57039L-75.189716,40.598173L-75.193866,40.608695L-75.195746,40.619145L-75.191058,40.629057L-75.194794,40.660673L-75.193964,40.670487L-75.190863,40.677934L-75.194794,40.688017L-75.198163,40.700541L-75.194159,40.713993L-75.180487,40.742631L-75.183539,40.743168L-75.187445,40.750297L-75.188739,40.758549L-75.183905,40.76248L-75.176532,40.765776L-75.169721,40.773637L-75.160663,40.790434L-75.142328,40.783964L-75.121918,40.785673L-75.105438,40.795634L-75.098602,40.813993L-75.093427,40.83809L-75.081366,40.847734L-75.067694,40.855131L-75.057611,40.872343L-75.061224,40.891508L-75.075653,40.908671L-75.091278,40.92227L-75.098602,40.930668L-75.100238,40.936625L-75.104511,40.939775L-75.110248,40.94102L-75.116278,40.941239L-75.119989,40.942778L-75.119891,40.94644L-75.118817,40.950932L-75.119696,40.954911L-75.131317,40.96724L-75.137299,40.975199L-75.139545,40.982206L-75.128827,40.998051L-75.106439,41.013749L-75.082684,41.02581L-75.067841,41.030619L-75.045721,41.035209L-75.026996,41.046806L-74.9862,41.086015L-74.982391,41.087187L-74.98205,41.089701L-74.982489,41.102006L-74.978339,41.106791L-74.96872,41.112529L-74.958173,41.117387L-74.951141,41.119389L-74.938202,41.127616L-74.886298,41.180839L-74.862567,41.224809L-74.852924,41.252616L-74.852142,41.259648L-74.844696,41.272978L-74.790692,41.311186L-74.788593,41.314018L-74.783221,41.323832L-74.780145,41.327934L-74.775067,41.330741L-74.764374,41.331669L-74.750897,41.340776L-74.740643,41.343681L-74.718402,41.344706L-74.698554,41.354521L-74.698993,41.356254L-74.600018,41.310551L-74.500995,41.264872L-74.401996,41.219169L-74.302997,41.173515L-74.204022,41.127836L-74.104999,41.082133L-74.006,41.036454L-73.907134,40.990813L-73.907135,40.99079L-73.907704,40.971869L-73.91808,40.931464L-73.954742,40.858588ZM-79.762909,41.999858L-79.726556,41.999858L-79.590497,41.999833L-79.454462,41.99976L-79.318427,41.999687L-79.182391,41.999613L-79.046356,41.99954L-78.910346,41.999443L-78.774286,41.999369L-78.638251,41.999296L-78.50224,41.999223L-78.36618,41.99915L-78.230121,41.999076L-78.094135,41.998979L-77.958075,41.998905L-77.82204,41.998832L-77.686029,41.998759L-77.550018,41.998686L-77.413934,41.998564L-77.277948,41.998515L-77.141864,41.998417L-77.005829,41.998368L-76.869843,41.998271L-76.733783,41.998222L-76.597723,41.9981L-76.461737,41.998051L-76.325678,41.997953L-76.189618,41.997904L-76.053632,41.997807L-75.917548,41.997758L-75.781512,41.997636L-75.645526,41.997587L-75.509467,41.997489L-75.373456,41.997465L-75.351288,41.997392L-75.338983,41.997392L-75.339447,41.983988L-75.315497,41.970195L-75.284198,41.959086L-75.263055,41.948002L-75.257147,41.929643L-75.254901,41.90457L-75.249139,41.882402L-75.232636,41.872904L-75.177411,41.879716L-75.164716,41.876567L-75.142767,41.862431L-75.115595,41.85496L-75.101239,41.83621L-75.091742,41.831938L-75.078949,41.82808L-75.083075,41.818803L-75.106024,41.797196L-75.08537,41.788725L-75.067889,41.784013L-75.055878,41.774906L-75.05141,41.753105L-75.054511,41.743656L-75.068134,41.73516L-75.071259,41.72581L-75.057611,41.687944L-75.057709,41.667289L-75.063934,41.615702L-75.061005,41.605375L-75.048358,41.595951L-74.99787,41.513847L-74.984345,41.498295L-74.96723,41.486918L-74.922626,41.478617L-74.910223,41.469242L-74.900409,41.458012L-74.886298,41.448344L-74.862079,41.444487L-74.813178,41.446879L-74.793817,41.437773L-74.780878,41.428935L-74.77038,41.428788L-74.760516,41.432353L-74.749139,41.434672L-74.74162,41.431401L-74.736395,41.423588L-74.728632,41.407402L-74.719891,41.39766L-74.704462,41.376127L-74.698993,41.356254L-74.698554,41.354521L-74.718402,41.344706L-74.740643,41.343681L-74.750897,41.340776L-74.764374,41.331669L-74.775067,41.330741L-74.780145,41.327934L-74.783221,41.323832L-74.788593,41.314018L-74.790692,41.311186L-74.844696,41.272978L-74.852142,41.259648L-74.852924,41.252616L-74.862567,41.224809L-74.886298,41.180839L-74.938202,41.127616L-74.951141,41.119389L-74.958173,41.117387L-74.96872,41.112529L-74.978339,41.106791L-74.982489,41.102006L-74.98205,41.089701L-74.982391,41.087187L-74.9862,41.086015L-75.026996,41.046806L-75.045721,41.035209L-75.067841,41.030619L-75.082684,41.02581L-75.106439,41.013749L-75.128827,40.998051L-75.139545,40.982206L-75.137299,40.975199L-75.131317,40.96724L-75.119696,40.954911L-75.118817,40.950932L-75.119891,40.94644L-75.119989,40.942778L-75.116278,40.941239L-75.110248,40.94102L-75.104511,40.939775L-75.100238,40.936625L-75.098602,40.930668L-75.091278,40.92227L-75.075653,40.908671L-75.061224,40.891508L-75.057611,40.872343L-75.067694,40.855131L-75.081366,40.847734L-75.093427,40.83809L-75.098602,40.813993L-75.105438,40.795634L-75.121918,40.785673L-75.142328,40.783964L-75.160663,40.790434L-75.169721,40.773637L-75.176532,40.765776L-75.183905,40.76248L-75.188739,40.758549L-75.187445,40.750297L-75.183539,40.743168L-75.180487,40.742631L-75.194159,40.713993L-75.198163,40.700541L-75.194794,40.688017L-75.190863,40.677934L-75.193964,40.670487L-75.194794,40.660673L-75.191058,40.629057L-75.195746,40.619145L-75.193866,40.608695L-75.189716,40.598173L-75.182196,40.57039L-75.16955,40.566264L-75.139545,40.570707L-75.088788,40.558329L-75.071649,40.531864L-75.064423,40.454008L-75.054315,40.43538L-75.035858,40.415165L-75.01369,40.403324L-74.97453,40.414579L-74.961493,40.397587L-74.947748,40.359037L-74.895502,40.323442L-74.886298,40.314018L-74.883075,40.30811L-74.849237,40.271293L-74.818036,40.241728L-74.764716,40.206279L-74.739374,40.184867L-74.728632,40.163237L-74.74101,40.143705L-74.76994,40.129838L-74.803143,40.121586L-74.828265,40.118852L-74.837762,40.114921L-74.872626,40.090873L-74.882831,40.087162L-74.920429,40.077861L-74.935761,40.070268L-74.975067,40.036283L-74.988593,40.029228L-75.02359,40.016303L-75.046539,40.009101L-75.079986,39.986396L-75.102406,39.981594L-75.1197,39.974189L-75.132924,39.956122L-75.138743,39.93358L-75.133412,39.912665L-75.147776,39.902574L-75.207916,39.885403L-75.248687,39.867255L-75.273101,39.864081L-75.297353,39.871731L-75.358876,39.848334L-75.376454,39.845038L-75.391713,39.839586L-75.424463,39.806614L-75.425214,39.807084L-75.431464,39.81099L-75.446405,39.816728L-75.469867,39.825346L-75.494891,39.833158L-75.529315,39.837846L-75.573114,39.838627L-75.601263,39.837846L-75.630219,39.830815L-75.652118,39.825346L-75.677948,39.815165L-75.702216,39.801786L-75.731122,39.782304L-75.758514,39.751811L-75.775287,39.722587L-75.776996,39.721049L-75.784686,39.721318L-75.788644,39.721318L-75.900116,39.721342L-76.015448,39.721342L-76.130878,39.721342L-76.246259,39.721342L-76.361664,39.721342L-76.477069,39.721391L-76.59245,39.72144L-76.70788,39.72144L-76.823285,39.72144L-76.938641,39.72144L-77.054047,39.72144L-77.169452,39.721488L-77.284882,39.721513L-77.400287,39.721513L-77.515643,39.721513L-77.631073,39.721513L-77.746454,39.721513L-77.861835,39.721562L-77.977264,39.721611L-78.09267,39.721611L-78.208075,39.721611L-78.32348,39.721611L-78.438837,39.721611L-78.554242,39.721635L-78.669696,39.721659L-78.785028,39.721659L-78.900458,39.721659L-79.015863,39.721659L-79.131268,39.721659L-79.246674,39.721708L-79.362054,39.721757L-79.477435,39.721757L-79.60766,39.721708L-79.737958,39.721659L-79.868182,39.721635L-79.998407,39.721611L-80.12868,39.721562L-80.258905,39.721513L-80.38913,39.721513L-80.519403,39.721488L-80.519476,39.791117L-80.51955,39.860771L-80.519623,39.930448L-80.519696,40.000102L-80.519696,40.080351L-80.519794,40.160575L-80.519867,40.240849L-80.51994,40.321098L-80.520013,40.401371L-80.520087,40.48162L-80.520184,40.561869L-80.520233,40.642167L-80.520233,40.642729L-80.520233,40.643315L-80.520233,40.643901L-80.520233,40.644487L-80.520233,40.645072L-80.520233,40.645634L-80.520233,40.646195L-80.520233,40.646781L-80.520233,40.751615L-80.520233,40.856449L-80.520233,40.961332L-80.520233,41.066166L-80.520233,41.170976L-80.520233,41.275834L-80.520233,41.380668L-80.520233,41.485527L-80.520233,41.590336L-80.520233,41.69517L-80.520233,41.800029L-80.520233,41.904887L-80.520233,42.009745L-80.520233,42.114579L-80.520233,42.219389L-80.520233,42.323782L-80.504151,42.326229L-80.375373,42.345788L-80.246596,42.365477L-80.093168,42.420151L-79.939767,42.474773L-79.786391,42.529369L-79.763007,42.537705L-79.763007,42.504374L-79.763007,42.470439L-79.763007,42.436479L-79.763007,42.402519L-79.763007,42.368608L-79.763007,42.334648L-79.763007,42.300737L-79.763007,42.266777L-79.763007,42.237626L-79.763007,42.208525L-79.763007,42.179399L-79.762982,42.150273L-79.762933,42.121147L-79.762933,42.091996L-79.762933,42.062846L-79.762933,42.033744Z"></path>
</svg>
